<svg id="Camada_1" data-name="Camada 1" xmlns="http://www.w3.org/2000/svg" viewBox="0 0 444.44 444.44"><defs><style>.cls-1{fill:#fec92b;}.cls-2{fill:#fab216;}.cls-3{fill:#e63a36;}.cls-4{fill:#263339;}</style></defs><title>alegria</title><path class="cls-1" d="M1516,424.88c0,122.72-99.49,222.22-222.22,222.22s-222.22-99.5-222.22-222.22S1171,202.65,1293.75,202.65,1516,302.15,1516,424.88" transform="translate(-1071.53 -202.65)"/><circle class="cls-2" cx="361.98" cy="252.28" r="57.46"/><circle class="cls-2" cx="82.46" cy="252.28" r="57.46"/><path class="cls-3" d="M1373.72,475a10.17,10.17,0,0,0-5.47-5.72,11.22,11.22,0,0,0-7.7-.51,10.45,10.45,0,0,0-6.48,5.33c-10.9,22.19-34.58,36.54-60.33,36.54s-49.4-14.35-60.31-36.54a10.42,10.42,0,0,0-6.42-5.31,11.22,11.22,0,0,0-7.71.47,10.15,10.15,0,0,0-5.52,5.75,9.29,9.29,0,0,0,.38,7.38c14.35,29.21,45.59,48.08,79.58,48.08s65.26-18.88,79.61-48.09A9.29,9.29,0,0,0,1373.72,475Z" transform="translate(-1071.53 -202.65)"/><path class="cls-4" d="M1258.57,390.58a11.09,11.09,0,0,1-11.1-11.09,38,38,0,1,0-76,0,11.1,11.1,0,0,1-22.2,0,60.19,60.19,0,1,1,120.37,0,11.1,11.1,0,0,1-11.11,11.09Z" transform="translate(-1071.53 -202.65)"/><path class="cls-4" d="M1427.08,390.58A11.09,11.09,0,0,1,1416,379.49a38,38,0,1,0-76,0,11.11,11.11,0,0,1-22.21,0,60.19,60.19,0,1,1,120.37,0,11.09,11.09,0,0,1-11.11,11.09Z" transform="translate(-1071.53 -202.65)"/></svg>