<svg id="Camada_1" data-name="Camada 1" xmlns="http://www.w3.org/2000/svg" viewBox="0 0 444.44 444.44"><defs><style>.cls-1{fill:#fec92b;}.cls-2{fill:#263339;}.cls-3{fill:#e63a36;}</style></defs><title>amor</title><path class="cls-1" d="M2373.11,424.88c0,122.72-99.5,222.22-222.23,222.22s-222.22-99.5-222.22-222.22,99.5-222.23,222.22-222.23,222.23,99.5,222.23,222.23" transform="translate(-1928.66 -202.65)"/><path class="cls-2" d="M2150.89,554.69a136.85,136.85,0,0,1-123.62-79.06,9.72,9.72,0,0,1,17.63-8.19,116.75,116.75,0,0,0,212,0,9.72,9.72,0,1,1,17.62,8.2,136.87,136.87,0,0,1-123.61,79.05Z" transform="translate(-1928.66 -202.65)"/><path class="cls-3" d="M2071.64,330.45A35.38,35.38,0,1,1,2131,356.29l.11,0-59.5,59.45-59.48-59.45s0,0,0,0a35.34,35.34,0,1,1,59.44-25.82Z" transform="translate(-1928.66 -202.65)"/><path class="cls-3" d="M2230.13,330.45a35.38,35.38,0,1,1,59.39,25.84l.09,0-59.48,59.45-59.48-59.45s0,0,0,0a35.34,35.34,0,1,1,59.43-25.82Z" transform="translate(-1928.66 -202.65)"/></svg>