<svg id="Camada_1" data-name="Camada 1" xmlns="http://www.w3.org/2000/svg" viewBox="0 0 444.44 444.44"><defs><style>.cls-1{fill:#fec92b;}.cls-2{fill:#e63a36;}.cls-3{fill:#fff;}.cls-4{fill:#43a8df;}.cls-5{fill:#263339;}</style></defs><title>tristeza</title><circle class="cls-1" cx="222.22" cy="222.22" r="222.22"/><path class="cls-2" d="M2179.42,1321.16h-74a40,40,0,1,0,74,0Z" transform="translate(-1920.17 -1034.95)"/><path class="cls-3" d="M2179.4,1321.16a39.57,39.57,0,0,0-2.48-5c-.13-.21-.26-.42-.38-.63a40.63,40.63,0,0,0-6.78-8.37l-.67-.6a41.31,41.31,0,0,0-4.14-3.3l0,0a37.73,37.73,0,0,0-4.57-2.65c-.34-.18-.68-.34-1-.5a39.7,39.7,0,0,0-4.82-1.93l-.13,0a37.32,37.32,0,0,0-5.19-1.22l-1.28-.2a40,40,0,0,0-5.5-.42,39.33,39.33,0,0,0-5.47.42l-1.3.2a38.14,38.14,0,0,0-5.2,1.22.35.35,0,0,1-.13,0,40.9,40.9,0,0,0-4.81,1.93c-.34.16-.68.32-1,.5a38.63,38.63,0,0,0-4.58,2.65,0,0,0,0,1,0,0,37.92,37.92,0,0,0-4.12,3.3c-.23.19-.45.4-.68.6a40,40,0,0,0-6.78,8.37c-.13.21-.27.42-.39.63a39.44,39.44,0,0,0-2.46,5h74Z" transform="translate(-1920.17 -1034.95)"/><path class="cls-4" d="M2049.75,1456.31a27.13,27.13,0,0,1-27.13-27.13V1191.06a27.13,27.13,0,0,1,54.26,0v238.12a27.12,27.12,0,0,1-27.13,27.13Z" transform="translate(-1920.17 -1034.95)"/><path class="cls-5" d="M2082.94,1206.23a7.5,7.5,0,0,1-7.51-7.5,25.68,25.68,0,1,0-51.36,0,7.51,7.51,0,0,1-15,0,40.69,40.69,0,1,1,81.38,0,7.5,7.5,0,0,1-7.5,7.5Z" transform="translate(-1920.17 -1034.95)"/><path class="cls-4" d="M2235,1456.31a27.12,27.12,0,0,1-27.13-27.13V1191.06a27.13,27.13,0,1,1,54.25,0v238.12a27.12,27.12,0,0,1-27.12,27.13Z" transform="translate(-1920.17 -1034.95)"/><path class="cls-5" d="M2268.2,1206.23a7.51,7.51,0,0,1-7.5-7.5,25.68,25.68,0,1,0-51.36,0,7.5,7.5,0,1,1-15,0,40.7,40.7,0,1,1,81.39,0,7.52,7.52,0,0,1-7.53,7.5Z" transform="translate(-1920.17 -1034.95)"/></svg>