<svg id="Camada_1" data-name="Camada 1" xmlns="http://www.w3.org/2000/svg" viewBox="0 0 444.44 444.44"><defs><style>.cls-1{fill:#fec92b;}.cls-2{fill:#263339;}.cls-3{fill:#e63a36;}.cls-4{fill:#41b2e6;}</style></defs><title>cansaço</title><circle class="cls-1" cx="222.22" cy="222.22" r="222.22"/><path class="cls-2" d="M2766.78,396.88a57,57,0,0,1-57-57,9.26,9.26,0,1,1,18.51,0,38.47,38.47,0,0,0,76.93,0,9.26,9.26,0,1,1,18.51,0,57,57,0,0,1-57,57Z" transform="translate(-2620.92 -202.65)"/><path class="cls-2" d="M2919.49,396.88a57,57,0,0,1-57-57,9.26,9.26,0,0,1,18.52,0,38.47,38.47,0,0,0,76.93,0,9.26,9.26,0,1,1,18.51,0,57,57,0,0,1-57,57Z" transform="translate(-2620.92 -202.65)"/><path class="cls-3" d="M2908.18,519.56H2778.1a9.67,9.67,0,0,1,0-19.34h130.08a9.67,9.67,0,1,1,0,19.34Z" transform="translate(-2620.92 -202.65)"/><path class="cls-4" d="M2947,642.65h-51.51a8.89,8.89,0,0,1-7.11-14.22l44.31-59.11h-40.67a8.89,8.89,0,1,1,0-17.77h58.45a8.89,8.89,0,0,1,7.12,14.21l-44.32,59.11H2947a8.89,8.89,0,0,1,0,17.78Z" transform="translate(-2620.92 -202.65)"/><path class="cls-4" d="M3038.68,642.65h-54.1a8.9,8.9,0,0,1-6.77-14.65l34.26-40.34h-28.38a8.89,8.89,0,1,1,0-17.78h47.59a8.89,8.89,0,0,1,6.78,14.64l-34.27,40.35h34.89a8.89,8.89,0,1,1,0,17.78Z" transform="translate(-2620.92 -202.65)"/></svg>