<svg id="Camada_1" data-name="Camada 1" xmlns="http://www.w3.org/2000/svg" viewBox="0 0 444.44 444.44"><defs><style>.cls-1{fill:#e63a36;}.cls-2{fill:#941916;}.cls-3{fill:#263339;}.cls-4{fill:#26333a;}</style></defs><title>raiva</title><circle class="cls-1" cx="222.22" cy="222.22" r="222.22"/><path class="cls-2" d="M2925.13,1353h-164c-3.94,0-7.13-5.7-7.13-12.73s3.19-12.74,7.13-12.74h164c3.94,0,7.13,5.7,7.13,12.74s-3.19,12.73-7.13,12.73Z" transform="translate(-2620.92 -1030.79)"/><path class="cls-3" d="M2754,1226.18a27.78,27.78,0,1,0,27.77-27.77A27.76,27.76,0,0,0,2754,1226.18Z" transform="translate(-2620.92 -1030.79)"/><path class="cls-3" d="M2876.71,1226.18a27.78,27.78,0,1,0,27.77-27.77A27.76,27.76,0,0,0,2876.71,1226.18Z" transform="translate(-2620.92 -1030.79)"/><path class="cls-4" d="M2823.71,1198.1l-75.91-44c-1.82-1-1.77-4.55.12-7.8s4.9-5,6.72-4l75.91,44c1.82,1,1.77,4.55-.12,7.8s-4.9,5-6.72,4Z" transform="translate(-2620.92 -1030.79)"/><path class="cls-4" d="M2856.47,1186.74l75.45-44.8c1.81-1.08,4.84.67,6.76,3.91s2,6.73.2,7.8l-75.45,44.8c-1.81,1.08-4.84-.67-6.76-3.9s-2-6.74-.2-7.81Z" transform="translate(-2620.92 -1030.79)"/></svg>