<svg width="1920" height="1403" viewBox="0 0 1920 1403" fill="none" xmlns="http://www.w3.org/2000/svg">
<path d="M1914.9 966.302C2112.9 788.802 2173.5 -126.703 1953.5 14.797C1733.5 156.297 182.105 278.297 -20.4998 103.297C-223.105 -71.7031 -128.605 756.802 -5.1048 966.302C57.6716 1072.79 491.559 1160 938.896 1154.3C1371.6 1148.79 1817.54 1053.58 1914.9 966.302Z" fill="#F9F2C4"/>
<path d="M1897.31 1214.3C2095.31 1036.8 2155.92 121.297 1935.92 262.797C1715.92 404.297 164.523 526.297 -38.0818 351.297C-240.687 176.297 -146.187 1004.8 -22.6868 1214.3C40.0896 1320.79 473.977 1408 921.314 1402.3C1354.02 1396.79 1799.96 1301.58 1897.31 1214.3Z" fill="#F9F2C4"/>
<g clip-path="url(#clip0_928_2)">
<path d="M1653.91 109.16C1654.71 109.274 1655.39 109.294 1656.15 109.077C1657.88 108.615 1659.53 107.491 1661.27 107.028C1661.56 106.962 1661.87 106.954 1662.16 107.007C1662.46 107.06 1662.74 107.172 1663 107.336C1663.25 107.5 1663.47 107.714 1663.64 107.963C1663.81 108.213 1663.92 108.494 1663.98 108.79C1664.87 112.815 1665.43 116.906 1665.66 121.022C1665.68 121.152 1665.72 121.278 1665.79 121.391C1665.85 121.505 1665.94 121.605 1666.04 121.684C1666.15 121.764 1666.27 121.821 1666.4 121.855C1666.52 121.888 1666.66 121.895 1666.79 121.877C1671.45 121.364 1676.02 120.246 1680.39 118.551C1681.56 118.055 1682.42 116.927 1682.15 115.729C1681.58 113.224 1679.56 110.807 1679.97 108.056C1680.13 106.898 1680.62 105.809 1681.37 104.912C1682.12 104.015 1683.11 103.346 1684.22 102.981C1686.48 102.223 1689.06 102.992 1690.64 104.684C1692.49 106.676 1692.14 109.868 1693.15 112.311C1693.65 113.479 1694.95 113.973 1696.15 113.696C1700.71 112.614 1705.09 110.917 1709.19 108.654C1709.71 108.358 1709.96 107.761 1709.57 107.365C1707.41 103.855 1705.55 100.166 1704.01 96.3393C1703.51 95.1719 1704.12 93.8543 1705.29 93.3566C1706.99 92.6736 1709.03 92.7323 1710.62 92.0643C1711.34 91.8542 1711.98 91.4555 1712.49 90.9102C1713.39 90.1525 1714.05 89.1528 1714.4 88.0304C1714.74 86.908 1714.75 85.7104 1714.43 84.5808C1713.8 82.4221 1711.89 80.7751 1709.69 80.2919C1706.91 79.7736 1704.82 81.744 1702.2 82.3278C1701 82.605 1699.78 81.8748 1699.49 80.5676C1698.6 76.5418 1698.04 72.4507 1697.81 68.3343C1697.79 68.204 1697.75 68.0783 1697.68 67.9647C1697.62 67.851 1697.53 67.7515 1697.42 67.6721C1697.32 67.5926 1697.2 67.5346 1697.07 67.5015C1696.94 67.4685 1696.81 67.4609 1696.68 67.4793C1692 67.7839 1687.45 69.0809 1683.07 70.8038C1681.9 71.3016 1681.05 72.429 1681.32 73.6268C1681.91 76.2414 1684.03 78.6441 1683.62 81.3948C1683.26 83.6898 1681.41 85.7407 1679.24 86.3735C1677.08 87.0063 1674.41 86.3632 1672.82 84.672C1670.87 82.6951 1671.31 79.3774 1670.3 76.9342C1669.8 75.7667 1668.5 75.2721 1667.3 75.5493C1662.72 76.626 1658.21 78.1434 1654.27 80.5916C1653.74 80.8877 1653.49 81.4847 1653.88 81.8802C1656.05 85.3901 1657.91 89.0789 1659.44 92.906C1659.94 94.0733 1659.33 95.391 1658.16 95.8887C1655.7 96.7874 1652.94 96.3799 1650.87 98.461C1649.28 100.026 1648.6 102.476 1649.35 104.619C1649.68 107.045 1651.72 108.785 1653.91 109.16Z" fill="#A965FF"/>
</g>
<g clip-path="url(#clip1_928_2)">
<path d="M1625.46 80.6103C1625.38 81.4163 1625.38 82.0943 1625.62 82.8447C1626.14 84.5643 1627.32 86.1705 1627.85 87.89C1627.92 88.1821 1627.94 88.4867 1627.9 88.7857C1627.86 89.0847 1627.75 89.3721 1627.6 89.6308C1627.44 89.8896 1627.24 90.1145 1626.99 90.2921C1626.75 90.4698 1626.47 90.5967 1626.18 90.6654C1622.19 91.692 1618.12 92.3932 1614.01 92.7621C1613.88 92.7839 1613.76 92.8313 1613.65 92.9014C1613.54 92.9715 1613.44 93.063 1613.36 93.1706C1613.29 93.2783 1613.23 93.3999 1613.21 93.5285C1613.18 93.6571 1613.17 93.7901 1613.2 93.9199C1613.87 98.5603 1615.14 103.093 1616.99 107.404C1617.52 108.556 1618.68 109.374 1619.87 109.057C1622.35 108.403 1624.7 106.301 1627.46 106.617C1628.63 106.741 1629.73 107.188 1630.65 107.909C1631.57 108.629 1632.28 109.594 1632.68 110.694C1633.52 112.925 1632.84 115.53 1631.2 117.169C1629.27 119.085 1626.07 118.845 1623.66 119.939C1622.51 120.475 1622.06 121.798 1622.38 122.986C1623.62 127.499 1625.47 131.823 1627.87 135.838C1628.18 136.35 1628.79 136.584 1629.17 136.18C1632.6 133.895 1636.23 131.908 1640 130.242C1641.15 129.704 1642.49 130.266 1643.02 131.417C1643.77 133.099 1643.78 135.133 1644.5 136.705C1644.73 137.412 1645.15 138.043 1645.72 138.531C1646.5 139.403 1647.53 140.029 1648.66 140.335C1649.79 140.641 1650.99 140.614 1652.11 140.256C1654.24 139.549 1655.82 137.58 1656.23 135.362C1656.65 132.575 1654.61 130.551 1653.94 127.953C1653.62 126.764 1654.31 125.515 1655.61 125.177C1659.6 124.151 1663.67 123.449 1667.77 123.08C1667.9 123.059 1668.03 123.011 1668.14 122.941C1668.25 122.871 1668.35 122.78 1668.42 122.672C1668.5 122.564 1668.55 122.443 1668.58 122.314C1668.61 122.185 1668.61 122.052 1668.59 121.923C1668.12 117.253 1666.67 112.753 1664.8 108.438C1664.26 107.286 1663.11 106.468 1661.92 106.786C1659.32 107.459 1657 109.669 1654.23 109.354C1651.93 109.073 1649.81 107.288 1649.11 105.148C1648.4 103.008 1648.95 100.312 1650.59 98.6734C1652.5 96.6475 1655.83 96.9782 1658.23 95.8849C1659.38 95.3481 1659.83 94.026 1659.51 92.8374C1658.28 88.3 1656.61 83.8382 1654.03 79.9856C1653.71 79.4735 1653.11 79.2392 1652.73 79.6437C1649.29 81.9288 1645.67 83.9152 1641.9 85.581C1640.75 86.1191 1639.41 85.5573 1638.87 84.4065C1637.89 81.9741 1638.2 79.206 1636.05 77.2024C1634.43 75.6717 1631.96 75.0792 1629.84 75.8963C1627.43 76.3121 1625.76 78.4093 1625.46 80.6103Z" fill="#65DD7F"/>
</g>
<defs>
<clipPath id="clip0_928_2">
<rect width="67.3741" height="49.9361" fill="white" transform="translate(1718.64 114.784) rotate(172.193)"/>
</clipPath>
<clipPath id="clip1_928_2">
<rect width="67.3741" height="49.9361" fill="white" transform="translate(1622.07 145.496) rotate(-99.7776)"/>
</clipPath>
</defs>
</svg>
