<svg id="Camada_1" data-name="Camada 1" xmlns="http://www.w3.org/2000/svg" viewBox="0 0 444.44 444.44"><defs><style>.cls-1{fill:#fec92b;}.cls-2{fill:#e63a36;}.cls-3{fill:#fff;}.cls-4{fill:#263339;}</style></defs><title>espanto</title><circle class="cls-1" cx="222.22" cy="222.22" r="222.22"/><path class="cls-2" d="M1363.19,1326.63a69.44,69.44,0,1,1-69.44-69.46A69.43,69.43,0,0,1,1363.19,1326.63Z" transform="translate(-1071.53 -1030.78)"/><path class="cls-3" d="M1316,1165.5a55.56,55.56,0,1,0,55.55-55.55A55.54,55.54,0,0,0,1316,1165.5Z" transform="translate(-1071.53 -1030.78)"/><path class="cls-4" d="M1343.75,1165.5a27.78,27.78,0,1,0,27.77-27.77A27.77,27.77,0,0,0,1343.75,1165.5Z" transform="translate(-1071.53 -1030.78)"/><path class="cls-3" d="M1160.42,1165.5A55.56,55.56,0,1,0,1216,1110,55.54,55.54,0,0,0,1160.42,1165.5Z" transform="translate(-1071.53 -1030.78)"/><path class="cls-4" d="M1188.19,1165.5a27.78,27.78,0,1,0,27.77-27.77A27.77,27.77,0,0,0,1188.19,1165.5Z" transform="translate(-1071.53 -1030.78)"/></svg>