<svg id="Camada_1" data-name="Camada 1" xmlns="http://www.w3.org/2000/svg" viewBox="0 0 444.44 463.9"><defs><style>.cls-1{fill:#187dc1;}.cls-1,.cls-2,.cls-3,.cls-4,.cls-5{fill-rule:evenodd;}.cls-2{fill:#358fcd;}.cls-3{fill:#0764a0;}.cls-4{fill:#263339;}.cls-5{fill:#fff;}</style></defs><title>medo</title><path class="cls-1" d="M3535.4,1021.06c122.74,0,222.22,99.49,222.22,222.22s-99.48,222.24-222.22,222.24-222.22-99.5-222.22-222.24,99.49-222.22,222.22-222.22Z" transform="translate(-3313.18 -1021.06)"/><path class="cls-2" d="M3480.27,1207.28c-17.35.5-35.91,1.89-52.69-2-39.16-8.95-55.09-46.91-38.35-80.87,47.92-97.27,244.43-97.27,292.36,0,16.73,34,.8,71.92-38.37,80.87-16.77,3.84-35.34,2.46-52.68,2-39.49-1.18-70.79-1.18-110.27,0Z" transform="translate(-3313.18 -1021.06)"/><path class="cls-3" d="M3345.56,1337.44c-6.37-32.92,25.68-39.06,49.72-23.36,28,18.29,56.35,70.83,57.41,104.3,1.1,34.91-5,67.92-47.85,66.53-21.76-.72-45.37-11.77-47.4-42.58-2.05-31.26,6.2-37.32-2.39-73.22-2.46-10.38-7.69-22.39-9.49-31.67Z" transform="translate(-3313.18 -1021.06)"/><path class="cls-3" d="M3725.25,1337.44c6.36-32.92-25.69-39.06-49.72-23.36-28,18.29-56.35,70.83-57.42,104.3-1.11,34.91,5,67.92,47.84,66.53,21.78-.72,45.39-11.77,47.41-42.58,2.07-31.26-6.21-37.32,2.38-73.22,2.48-10.38,7.7-22.39,9.51-31.67Z" transform="translate(-3313.18 -1021.06)"/><path class="cls-4" d="M3535.4,1276h0a45.65,45.65,0,0,1,45.53,45.53v51a45.65,45.65,0,0,1-45.53,45.53h0a45.64,45.64,0,0,1-45.53-45.52v-51A45.64,45.64,0,0,1,3535.4,1276Z" transform="translate(-3313.18 -1021.06)"/><path class="cls-5" d="M3477.73,1150.53c29.11,16.81,36.88,57.88,17.35,91.71s-59,47.66-88.1,30.85-36.91-57.87-17.37-91.72,59-47.66,88.12-30.84Z" transform="translate(-3313.18 -1021.06)"/><path class="cls-5" d="M3593.08,1150.53c-29.12,16.81-36.89,57.88-17.34,91.71s59,47.66,88.1,30.85,36.88-57.87,17.35-91.72-59-47.66-88.11-30.84Z" transform="translate(-3313.18 -1021.06)"/></svg>