<svg width="1654" height="350" viewBox="0 0 1654 350" fill="none" xmlns="http://www.w3.org/2000/svg">
<g clip-path="url(#clip0_849_4)">
<path d="M27.9291 315.584C28.7397 315.578 29.4128 315.496 30.1303 315.169C31.7782 314.452 33.2378 313.095 34.8858 312.378C35.1671 312.268 35.4676 312.216 35.7695 312.224C36.0714 312.231 36.3687 312.3 36.6436 312.424C36.9185 312.549 37.1656 312.727 37.3702 312.949C37.5747 313.17 37.7327 313.431 37.8347 313.715C39.3144 317.562 40.4797 321.523 41.3192 325.559C41.3558 325.685 41.4171 325.803 41.4996 325.906C41.5821 326.008 41.6841 326.093 41.7997 326.156C41.9154 326.219 42.0424 326.259 42.1734 326.272C42.3045 326.286 42.4369 326.274 42.5632 326.236C47.0952 325.033 51.4511 323.244 55.5206 320.916C56.6034 320.25 57.2827 319.008 56.8309 317.864C55.8948 315.472 53.5369 313.383 53.5325 310.602C53.5213 309.433 53.8384 308.283 54.448 307.284C55.0576 306.285 55.9352 305.476 56.9813 304.949C59.1005 303.862 61.7667 304.237 63.5836 305.674C65.7083 307.368 65.8395 310.576 67.2029 312.841C67.8686 313.922 69.2337 314.216 70.3776 313.763C74.7183 312.013 78.8006 309.681 82.5117 306.831C82.9842 306.46 83.1472 305.832 82.7014 305.499C80.0359 302.352 77.6454 298.982 75.5562 295.427C74.8893 294.347 75.2932 292.954 76.3744 292.287C77.9595 291.357 79.9784 291.112 81.4573 290.213C82.1328 289.898 82.7109 289.408 83.1307 288.793C83.9061 287.91 84.4106 286.822 84.5839 285.661C84.7572 284.5 84.5919 283.314 84.1079 282.244C83.1599 280.204 81.0216 278.861 78.7711 278.712C75.9539 278.614 74.1786 280.875 71.6753 281.843C70.5314 282.296 69.211 281.757 68.7268 280.508C67.2469 276.66 66.0815 272.698 65.2419 268.662C65.2053 268.536 65.144 268.418 65.0615 268.316C64.979 268.213 64.877 268.128 64.7614 268.065C64.6457 268.002 64.5187 267.963 64.3877 267.949C64.2566 267.935 64.1242 267.948 63.9979 267.985C59.4129 268.986 55.1105 270.947 51.0401 273.304C49.9577 273.971 49.2784 275.214 49.7302 276.357C50.6975 278.855 53.1617 280.913 53.1673 283.694C53.1536 286.017 51.6238 288.322 49.5794 289.271C47.535 290.219 44.7941 289.983 42.9775 288.547C40.7452 286.885 40.69 283.538 39.3266 281.273C38.6609 280.192 37.2958 279.898 36.1519 280.351C31.7868 282.099 27.5473 284.274 24.0178 287.283C23.5454 287.654 23.3824 288.282 23.8281 288.615C26.4936 291.762 28.8841 295.132 30.9734 298.687C31.6402 299.767 31.2363 301.16 30.1552 301.827C27.8522 303.083 25.0665 303.092 23.3241 305.46C21.9901 307.243 21.6862 309.767 22.7418 311.775C23.4328 314.124 25.7083 315.541 27.9291 315.584Z" fill="#29ABE2"/>
</g>
<g clip-path="url(#clip1_849_4)">
<path d="M1554.94 55.2952C1555.57 55.805 1556.14 56.1697 1556.91 56.3724C1558.63 56.8658 1560.62 56.7449 1562.35 57.2383C1562.64 57.332 1562.9 57.4822 1563.13 57.6801C1563.36 57.878 1563.55 58.1195 1563.68 58.3903C1563.81 58.6612 1563.89 58.9559 1563.91 59.257C1563.93 59.5581 1563.88 59.8596 1563.78 60.1435C1562.48 64.055 1560.86 67.8544 1558.95 71.5046C1558.9 71.6255 1558.87 71.7554 1558.87 71.887C1558.87 72.0185 1558.89 72.1491 1558.94 72.2711C1558.99 72.3932 1559.06 72.5043 1559.15 72.5981C1559.25 72.6919 1559.36 72.7665 1559.48 72.8177C1563.74 74.7673 1568.24 76.1532 1572.86 76.9401C1574.12 77.1138 1575.44 76.5856 1575.82 75.4157C1576.61 72.9736 1576.12 69.8623 1577.88 67.7114C1578.62 66.8012 1579.59 66.115 1580.7 65.7306C1581.8 65.3462 1582.99 65.2791 1584.14 65.5367C1586.46 66.0432 1588.28 68.0266 1588.77 70.2908C1589.34 72.9487 1587.4 75.5096 1587.02 78.125C1586.84 79.3822 1587.71 80.4765 1588.88 80.8532C1593.35 82.2591 1597.98 83.0514 1602.66 83.208C1603.26 83.2217 1603.78 82.8399 1603.65 82.2999C1603.59 78.176 1603.89 74.055 1604.53 69.9823C1604.7 68.7246 1605.9 67.9049 1607.16 68.0769C1608.97 68.3655 1610.69 69.4585 1612.4 69.7037C1613.12 69.8899 1613.88 69.8783 1614.59 69.6701C1615.75 69.4805 1616.83 68.9612 1617.71 68.1744C1618.58 67.3877 1619.2 66.3666 1619.51 65.2332C1620.07 63.0554 1619.27 60.6601 1617.63 59.1155C1615.52 57.2496 1612.71 57.8679 1610.16 57.0256C1608.99 56.6489 1608.31 55.3937 1608.73 54.1216C1610.03 50.2097 1611.65 46.4098 1613.57 42.7592C1613.62 42.6384 1613.65 42.5085 1613.65 42.3769C1613.65 42.2453 1613.62 42.1148 1613.57 41.9927C1613.53 41.8707 1613.45 41.7595 1613.36 41.6657C1613.27 41.5719 1613.16 41.4973 1613.04 41.4462C1608.86 39.3062 1604.29 38.0879 1599.65 37.3225C1598.39 37.15 1597.08 37.6783 1596.7 38.8482C1595.86 41.392 1596.45 44.5467 1594.69 46.6981C1593.21 48.4835 1590.56 49.2921 1588.38 48.726C1586.2 48.1599 1584.23 46.2361 1583.74 43.9731C1583.07 41.2712 1585.16 38.6513 1585.54 36.0359C1585.71 34.7787 1584.85 33.6844 1583.67 33.3077C1579.19 31.8848 1574.54 30.8713 1569.9 30.9529C1569.3 30.9392 1568.77 31.321 1568.91 31.861C1568.97 35.985 1568.67 40.1059 1568.03 44.1787C1567.86 45.4363 1566.66 46.256 1565.4 46.084C1562.82 45.5915 1560.67 43.8286 1557.82 44.5503C1555.65 45.0806 1553.82 46.8366 1553.36 49.0583C1552.4 51.3114 1553.25 53.8507 1554.94 55.2952Z" fill="#FFD167"/>
</g>
<defs>
<clipPath id="clip0_849_4">
<rect width="67.3741" height="49.9361" fill="white" transform="translate(92.7744 311.483) rotate(163.607)"/>
</clipPath>
<clipPath id="clip1_849_4">
<rect width="67.3741" height="49.9361" fill="white" transform="translate(1619 92.5677) rotate(-156.955)"/>
</clipPath>
</defs>
</svg>
